<svg xmlns="http://www.w3.org/2000/svg" xmlns:xlink="http://www.w3.org/1999/xlink" width="467" zoomAndPan="magnify" viewBox="0 0 350.25 86.999996" height="116" preserveAspectRatio="xMidYMid meet" version="1.0"><defs><g/><clipPath id="27128b2846"><path d="M 57.925781 16.597656 L 98.214844 16.597656 L 98.214844 56.882812 L 57.925781 56.882812 Z M 57.925781 16.597656 " clip-rule="nonzero"/></clipPath><clipPath id="05449f0fdd"><path d="M 71.386719 54 L 85.328125 54 L 85.328125 56.917969 L 71.386719 56.917969 Z M 71.386719 54 " clip-rule="nonzero"/></clipPath><clipPath id="b2ad1a9668"><path d="M 68.597656 23.105469 L 87.878906 23.105469 L 87.878906 53.777344 L 68.597656 53.777344 Z M 68.597656 23.105469 " clip-rule="nonzero"/></clipPath></defs><g fill="#3579e6" fill-opacity="1"><g transform="translate(16.503226, 54.891292)"><g><path d="M 11.09375 -22.890625 L 11.09375 0 L 2.6875 0 L 2.6875 -36.890625 L 11.09375 -36.890625 L 25.765625 -14 L 25.84375 -14 L 25.84375 -36.890625 L 34.25 -36.890625 L 34.25 0 L 25.84375 0 L 11.171875 -22.890625 Z M 11.09375 -22.890625 "/></g></g></g><g fill="#3579e6" fill-opacity="1"><g transform="translate(53.453122, 54.891292)"><g/></g></g><g fill="#3579e6" fill-opacity="1"><g transform="translate(65.661617, 54.891292)"><g/></g></g><g fill="#3579e6" fill-opacity="1"><g transform="translate(77.870113, 54.891292)"><g/></g></g><g fill="#3579e6" fill-opacity="1"><g transform="translate(90.078608, 54.891292)"><g/></g></g><g fill="#3579e6" fill-opacity="1"><g transform="translate(102.287257, 54.891292)"><g><path d="M 0.359375 -29.515625 L 0.359375 -36.890625 L 26.296875 -36.890625 L 26.296875 -29.515625 L 17.53125 -29.515625 L 17.53125 0 L 9.125 0 L 9.125 -29.515625 Z M 0.359375 -29.515625 "/></g></g></g><g fill="#3579e6" fill-opacity="1"><g transform="translate(128.940246, 54.891292)"><g><path d="M 23.796875 -36.890625 L 23.796875 -29.515625 L 11.09375 -29.515625 L 11.09375 -22.1875 L 23.25 -22.1875 L 23.25 -14.796875 L 11.09375 -14.796875 L 11.09375 -7.375 L 23.796875 -7.375 L 23.796875 0 L 2.6875 0 L 2.6875 -36.890625 Z M 23.796875 -36.890625 "/></g></g></g><g fill="#3579e6" fill-opacity="1"><g transform="translate(154.877724, 54.891292)"><g><path d="M 16.28125 -37.5625 C 18.28125 -37.5625 20.234375 -37.269531 22.140625 -36.6875 C 24.046875 -36.101562 25.460938 -35.53125 26.390625 -34.96875 L 27.71875 -34.078125 L 24.328125 -27.375 C 24.054688 -27.550781 23.679688 -27.78125 23.203125 -28.0625 C 22.734375 -28.34375 21.84375 -28.722656 20.53125 -29.203125 C 19.21875 -29.679688 17.992188 -29.921875 16.859375 -29.921875 C 15.453125 -29.921875 14.367188 -29.617188 13.609375 -29.015625 C 12.847656 -28.421875 12.46875 -27.617188 12.46875 -26.609375 C 12.46875 -26.097656 12.644531 -25.625 13 -25.1875 C 13.363281 -24.757812 13.976562 -24.300781 14.84375 -23.8125 C 15.707031 -23.320312 16.46875 -22.925781 17.125 -22.625 C 17.78125 -22.332031 18.796875 -21.882812 20.171875 -21.28125 C 22.554688 -20.269531 24.585938 -18.890625 26.265625 -17.140625 C 27.953125 -15.398438 28.796875 -13.425781 28.796875 -11.21875 C 28.796875 -9.101562 28.414062 -7.253906 27.65625 -5.671875 C 26.894531 -4.097656 25.847656 -2.863281 24.515625 -1.96875 C 23.191406 -1.070312 21.722656 -0.410156 20.109375 0.015625 C 18.503906 0.453125 16.765625 0.671875 14.890625 0.671875 C 13.273438 0.671875 11.691406 0.503906 10.140625 0.171875 C 8.597656 -0.148438 7.304688 -0.554688 6.265625 -1.046875 C 5.222656 -1.535156 4.28125 -2.019531 3.4375 -2.5 C 2.601562 -2.976562 1.992188 -3.382812 1.609375 -3.71875 L 1.03125 -4.203125 L 5.234375 -11.265625 C 5.585938 -10.972656 6.078125 -10.59375 6.703125 -10.125 C 7.328125 -9.664062 8.4375 -9.046875 10.03125 -8.265625 C 11.632812 -7.492188 13.046875 -7.109375 14.265625 -7.109375 C 17.816406 -7.109375 19.59375 -8.316406 19.59375 -10.734375 C 19.59375 -11.242188 19.460938 -11.710938 19.203125 -12.140625 C 18.953125 -12.578125 18.503906 -13.007812 17.859375 -13.4375 C 17.222656 -13.875 16.65625 -14.21875 16.15625 -14.46875 C 15.664062 -14.71875 14.863281 -15.101562 13.75 -15.625 C 12.632812 -16.144531 11.804688 -16.539062 11.265625 -16.8125 C 9.035156 -17.914062 7.304688 -19.296875 6.078125 -20.953125 C 4.859375 -22.609375 4.25 -24.390625 4.25 -26.296875 C 4.25 -29.609375 5.46875 -32.3125 7.90625 -34.40625 C 10.351562 -36.507812 13.144531 -37.5625 16.28125 -37.5625 Z M 16.28125 -37.5625 "/></g></g></g><g fill="#3579e6" fill-opacity="1"><g transform="translate(184.929418, 54.891292)"><g><path d="M 2.6875 -36.890625 L 16.140625 -36.890625 C 19.898438 -36.890625 22.941406 -35.921875 25.265625 -33.984375 C 27.585938 -32.046875 28.75 -29.226562 28.75 -25.53125 C 28.75 -21.832031 27.570312 -18.929688 25.21875 -16.828125 C 22.863281 -14.734375 19.835938 -13.6875 16.140625 -13.6875 L 11.09375 -13.6875 L 11.09375 0 L 2.6875 0 Z M 11.09375 -20.390625 L 13.453125 -20.390625 C 15.335938 -20.390625 16.882812 -20.769531 18.09375 -21.53125 C 19.300781 -22.289062 19.90625 -23.535156 19.90625 -25.265625 C 19.90625 -27.023438 19.300781 -28.285156 18.09375 -29.046875 C 16.882812 -29.804688 15.335938 -30.1875 13.453125 -30.1875 L 11.09375 -30.1875 Z M 11.09375 -20.390625 "/></g></g></g><g fill="#3579e6" fill-opacity="1"><g transform="translate(214.712799, 54.891292)"><g><path d="M 11.09375 -14.796875 L 11.09375 0 L 2.6875 0 L 2.6875 -36.890625 L 11.09375 -36.890625 L 11.09375 -22.1875 L 22.984375 -22.1875 L 22.984375 -36.890625 L 31.390625 -36.890625 L 31.390625 0 L 22.984375 0 L 22.984375 -14.796875 Z M 11.09375 -14.796875 "/></g></g></g><g fill="#3579e6" fill-opacity="1"><g transform="translate(248.789279, 54.891292)"><g><path d="M 23.796875 -36.890625 L 23.796875 -29.515625 L 11.09375 -29.515625 L 11.09375 -22.1875 L 23.25 -22.1875 L 23.25 -14.796875 L 11.09375 -14.796875 L 11.09375 -7.375 L 23.796875 -7.375 L 23.796875 0 L 2.6875 0 L 2.6875 -36.890625 Z M 23.796875 -36.890625 "/></g></g></g><g fill="#3579e6" fill-opacity="1"><g transform="translate(274.726757, 54.891292)"><g><path d="M 2.6875 -36.890625 L 15.875 -36.890625 C 19.425781 -36.890625 22.316406 -35.941406 24.546875 -34.046875 C 26.785156 -32.160156 27.90625 -29.457031 27.90625 -25.9375 C 27.90625 -23.226562 27.222656 -20.953125 25.859375 -19.109375 C 24.503906 -17.273438 22.664062 -15.988281 20.34375 -15.25 L 33.046875 0 L 22.359375 0 L 11.09375 -14.578125 L 11.09375 0 L 2.6875 0 Z M 11.09375 -20.53125 L 12.078125 -20.53125 C 12.847656 -20.53125 13.5 -20.539062 14.03125 -20.5625 C 14.570312 -20.59375 15.1875 -20.695312 15.875 -20.875 C 16.5625 -21.0625 17.113281 -21.316406 17.53125 -21.640625 C 17.945312 -21.972656 18.300781 -22.453125 18.59375 -23.078125 C 18.894531 -23.703125 19.046875 -24.460938 19.046875 -25.359375 C 19.046875 -26.253906 18.894531 -27.015625 18.59375 -27.640625 C 18.300781 -28.265625 17.945312 -28.738281 17.53125 -29.0625 C 17.113281 -29.394531 16.5625 -29.648438 15.875 -29.828125 C 15.1875 -30.003906 14.570312 -30.109375 14.03125 -30.140625 C 13.5 -30.171875 12.847656 -30.1875 12.078125 -30.1875 L 11.09375 -30.1875 Z M 11.09375 -20.53125 "/></g></g></g><g fill="#3579e6" fill-opacity="1"><g transform="translate(306.746123, 54.891292)"><g><path d="M 23.796875 -36.890625 L 23.796875 -29.515625 L 11.09375 -29.515625 L 11.09375 -22.1875 L 23.25 -22.1875 L 23.25 -14.796875 L 11.09375 -14.796875 L 11.09375 -7.375 L 23.796875 -7.375 L 23.796875 0 L 2.6875 0 L 2.6875 -36.890625 Z M 23.796875 -36.890625 "/></g></g></g><g clip-path="url(#27128b2846)"><path fill="#3579e6" d="M 98.5625 36.914062 C 98.5625 37.578125 98.527344 38.242188 98.464844 38.90625 C 98.398438 39.566406 98.300781 40.226562 98.171875 40.878906 C 98.042969 41.53125 97.878906 42.175781 97.6875 42.8125 C 97.492188 43.449219 97.269531 44.074219 97.015625 44.6875 C 96.761719 45.304688 96.476562 45.90625 96.164062 46.492188 C 95.847656 47.078125 95.507812 47.648438 95.136719 48.203125 C 94.769531 48.753906 94.371094 49.289062 93.949219 49.804688 C 93.527344 50.316406 93.082031 50.808594 92.609375 51.28125 C 92.140625 51.75 91.648438 52.195312 91.132812 52.621094 C 90.617188 53.042969 90.085938 53.4375 89.53125 53.808594 C 88.976562 54.175781 88.410156 54.519531 87.820312 54.832031 C 87.234375 55.144531 86.632812 55.429688 86.019531 55.683594 C 85.40625 55.9375 84.777344 56.164062 84.140625 56.355469 C 83.503906 56.550781 82.859375 56.710938 82.207031 56.839844 C 81.554688 56.96875 80.898438 57.066406 80.234375 57.132812 C 79.574219 57.199219 78.910156 57.230469 78.242188 57.230469 C 77.578125 57.230469 76.914062 57.199219 76.253906 57.132812 C 75.589844 57.066406 74.933594 56.96875 74.28125 56.839844 C 73.628906 56.710938 72.984375 56.550781 72.347656 56.355469 C 71.710938 56.164062 71.082031 55.9375 70.46875 55.683594 C 69.855469 55.429688 69.253906 55.144531 68.667969 54.832031 C 68.078125 54.519531 67.507812 54.175781 66.957031 53.808594 C 66.402344 53.4375 65.867188 53.042969 65.355469 52.621094 C 64.839844 52.195312 64.347656 51.75 63.878906 51.28125 C 63.40625 50.808594 62.960938 50.316406 62.539062 49.804688 C 62.117188 49.289062 61.71875 48.753906 61.351562 48.203125 C 60.980469 47.648438 60.640625 47.078125 60.324219 46.492188 C 60.011719 45.90625 59.726562 45.304688 59.472656 44.6875 C 59.21875 44.074219 58.996094 43.449219 58.800781 42.8125 C 58.609375 42.175781 58.445312 41.53125 58.316406 40.878906 C 58.1875 40.226562 58.089844 39.566406 58.023438 38.90625 C 57.960938 38.242188 57.925781 37.578125 57.925781 36.914062 C 57.925781 36.25 57.960938 35.585938 58.023438 34.921875 C 58.089844 34.261719 58.1875 33.601562 58.316406 32.949219 C 58.445312 32.296875 58.609375 31.652344 58.800781 31.015625 C 58.996094 30.378906 59.21875 29.753906 59.472656 29.136719 C 59.726562 28.523438 60.011719 27.921875 60.324219 27.335938 C 60.640625 26.75 60.980469 26.179688 61.351562 25.625 C 61.71875 25.074219 62.117188 24.539062 62.539062 24.023438 C 62.960938 23.511719 63.40625 23.015625 63.878906 22.546875 C 64.347656 22.078125 64.839844 21.628906 65.355469 21.207031 C 65.867188 20.785156 66.402344 20.390625 66.957031 20.019531 C 67.507812 19.652344 68.078125 19.308594 68.667969 18.996094 C 69.253906 18.679688 69.855469 18.398438 70.46875 18.144531 C 71.082031 17.886719 71.710938 17.664062 72.347656 17.472656 C 72.984375 17.277344 73.628906 17.117188 74.28125 16.988281 C 74.933594 16.855469 75.589844 16.757812 76.253906 16.695312 C 76.914062 16.628906 77.578125 16.597656 78.242188 16.597656 C 78.910156 16.597656 79.574219 16.628906 80.234375 16.695312 C 80.898438 16.757812 81.554688 16.855469 82.207031 16.988281 C 82.859375 17.117188 83.503906 17.277344 84.140625 17.472656 C 84.777344 17.664062 85.40625 17.886719 86.019531 18.144531 C 86.632812 18.398438 87.234375 18.679688 87.820312 18.996094 C 88.410156 19.308594 88.976562 19.652344 89.53125 20.019531 C 90.085938 20.390625 90.617188 20.785156 91.132812 21.207031 C 91.648438 21.628906 92.140625 22.078125 92.609375 22.546875 C 93.082031 23.015625 93.527344 23.511719 93.949219 24.023438 C 94.371094 24.539062 94.769531 25.074219 95.136719 25.625 C 95.507812 26.179688 95.847656 26.75 96.164062 27.335938 C 96.476562 27.921875 96.761719 28.523438 97.015625 29.136719 C 97.269531 29.753906 97.492188 30.378906 97.6875 31.015625 C 97.878906 31.652344 98.042969 32.296875 98.171875 32.949219 C 98.300781 33.601562 98.398438 34.261719 98.464844 34.921875 C 98.527344 35.585938 98.5625 36.25 98.5625 36.914062 Z M 98.5625 36.914062 " fill-opacity="1" fill-rule="nonzero"/></g><g clip-path="url(#05449f0fdd)"><path fill="#ffffff" d="M 72.105469 54.195312 L 71.417969 57.234375 C 72.179688 57.234375 84.316406 57.234375 85.074219 57.234375 L 84.390625 54.195312 C 84.042969 54.195312 72.449219 54.195312 72.105469 54.195312 " fill-opacity="1" fill-rule="nonzero"/></g><g clip-path="url(#b2ad1a9668)"><path fill="#ffffff" d="M 84.207031 53.507812 C 85.027344 49.523438 86.269531 45.75 87.894531 42.167969 C 83.34375 39.066406 80.914062 32.175781 78.800781 24.726562 C 79.03125 24.554688 79.179688 24.285156 79.179688 23.972656 C 79.179688 23.578125 78.933594 23.246094 78.589844 23.105469 C 78.589844 24.644531 78.589844 43.070312 78.589844 43.921875 C 79.414062 44.078125 80.035156 44.804688 80.035156 45.675781 C 80.035156 46.664062 79.234375 47.464844 78.246094 47.464844 C 77.261719 47.464844 76.457031 46.664062 76.457031 45.675781 C 76.457031 44.804688 77.082031 44.078125 77.90625 43.921875 C 77.90625 43.070312 77.90625 24.644531 77.90625 23.105469 C 77.558594 23.246094 77.3125 23.578125 77.3125 23.972656 C 77.3125 24.285156 77.460938 24.554688 77.695312 24.726562 C 75.578125 32.175781 73.148438 39.066406 68.597656 42.167969 C 70.222656 45.75 71.464844 49.523438 72.285156 53.507812 C 72.621094 53.507812 83.875 53.507812 84.207031 53.507812 " fill-opacity="1" fill-rule="nonzero"/></g></svg>